<svg width="93" height="31" viewBox="0 0 93 31" fill="none" xmlns="http://www.w3.org/2000/svg">
<path fill-rule="evenodd" clip-rule="evenodd" d="M51.4565 0.203175C50.5912 0.503994 49.6087 1.2653 38.2711 10.4161C37.1537 11.3179 36.1865 12.0557 36.1214 12.0557C35.992 12.0557 32.4087 9.74288 29.0389 7.48403C25.5354 5.13574 25.6273 5.1301 22.7482 7.8587C15.5467 14.6836 0.653276 28.9406 0.266218 29.3801L0 29.6825L0.369465 29.6059C5.22968 28.5985 6.90292 28.5998 8.01271 29.6125L8.50417 30.061L9.50075 29.5529C11.1064 28.7344 12.0546 28.4835 13.5994 28.4691C14.3137 28.4625 14.8985 28.4404 14.8987 28.4203C14.9041 27.9804 12.5817 25.9426 11.4865 25.4261C10.5281 24.9742 10.5332 25.0275 11.3298 23.7569C12.518 21.8621 14.6318 20.1471 17.0345 19.1286C19.1179 18.2455 19.7865 17.5734 20.9537 15.1886C22.0489 12.9505 22.9131 12.2095 24.8046 11.8875C26.5401 11.5918 27.3385 12.0492 28.3819 13.9363C29.3382 15.6662 29.8019 15.9625 31.923 16.1992C33.2106 16.3428 33.147 16.2789 32.6608 16.9406C27.2212 24.347 26.3088 25.259 23.1955 26.4022C22.0195 26.834 21.3373 27.2279 20.4678 27.9767C19.2578 29.0188 19.2809 29.0551 20.9981 28.8191C22.0239 28.678 24.5018 28.7091 29.585 28.9271C36.9872 29.2446 38.8174 28.9311 40.8339 27.0007C42.4873 25.418 42.8197 22.9209 41.377 22.9209C40.8319 22.9209 40.5733 23.1625 39.3651 24.8012C37.4803 27.3573 35.8253 27.972 32.5923 27.3164C31.1668 27.0273 28.4182 26.0187 28.499 25.8141C28.5803 25.6086 33.6338 20.5446 33.8565 20.4454C33.9984 20.3824 34.4567 20.2842 34.8748 20.227C37.0425 19.9307 38.0051 19.2277 40.5362 16.0912C41.8264 14.4927 42.894 13.3681 42.7533 13.7561C42.2951 15.0192 42.8385 18.197 43.8336 20.0753L43.9982 20.3856L44.1297 19.8881C44.6413 17.9528 45.8296 16.9962 50.446 14.803C52.6015 13.7791 53.1608 13.3351 53.7393 12.1885C54.2682 11.1404 54.2625 9.55317 53.7245 8.14935C53.2853 7.00344 53.317 7.01067 52.7052 7.91651C51.3956 9.8558 48.2871 11.1551 47.666 10.0229C47.4294 9.59179 47.4977 7.11884 47.7621 6.53573C48.1186 5.74913 52.1163 2.01848 52.6024 2.01848C53.417 2.01848 57.4196 5.69786 58.2046 7.1683C58.9412 8.54864 58.8861 8.7729 57.3515 10.6408C53.8636 14.8866 51.4931 18.307 49.4129 22.0959C48.389 23.9611 48.3728 24.1158 49.2337 23.8021C49.6187 23.6616 50.0145 23.3491 50.8588 22.5184C52.0181 21.3781 52.5084 20.7426 54.8937 17.29C56.4973 14.9686 56.6149 14.8588 58.4402 13.9747C60.6908 12.8845 62.7821 12.4159 62.994 12.9543C63.0808 13.175 62.311 14.7423 61.6372 15.717C61.3666 16.1086 61.145 16.4607 61.145 16.4993C61.145 16.5379 62.1592 16.4413 63.3988 16.2846C66.9136 15.8399 66.4203 15.7326 69.357 17.5784C70.8492 18.5163 70.7124 18.5908 70.9992 16.685C71.2854 14.7841 71.2178 14.9264 71.9975 14.5824C73.8892 13.7481 75.35 14.4993 80.8822 19.1511C84.3826 22.0945 92.6472 28.2642 92.6472 27.9341C92.6472 27.8308 79.2856 13.3378 71.9058 5.43634C69.0471 2.37553 68.3929 2.33014 63.8345 4.87648C62.1877 5.79633 62.3388 5.82162 59.8512 4.21025C53.0237 -0.212371 52.8665 -0.287349 51.4565 0.203175ZM53.1307 25.2621C50.2493 27.8087 50.3903 27.6222 51.0063 28.0732C51.8255 28.6726 52.5355 28.8602 54.0018 28.8647C55.6642 28.8699 55.6544 28.8774 55.879 27.3907C56.2026 25.2463 56.1596 23.8723 55.7461 23.1503C55.694 23.0595 54.8674 23.7269 53.1307 25.2621ZM75.7375 23.9679C75.5803 24.0885 75.3067 24.4381 75.1293 24.7445C74.6731 25.5332 74.5844 25.5415 71.603 25.0797C69.9804 24.8285 69.0575 24.9089 67.6965 25.4202C66.4013 25.9069 66.3358 25.8624 69.5774 26.6967C75.631 28.2547 79.919 28.6592 79.919 27.6721C79.919 25.5745 77.0063 22.9943 75.7375 23.9679Z" fill="#F64A4A"/>
</svg>
