<svg width="261" height="66" viewBox="0 0 261 66" fill="none" xmlns="http://www.w3.org/2000/svg">
<path d="M7.87928 51V14.08H21.2953C25.3166 14.08 28.6793 14.912 31.3833 16.576C34.0873 18.2053 36.1153 20.424 37.4673 23.232C38.8193 26.0053 39.4953 29.0907 39.4953 32.488C39.4953 36.232 38.7499 39.4907 37.2593 42.264C35.7686 45.0373 33.6539 47.1867 30.9153 48.712C28.2113 50.2373 25.0046 51 21.2953 51H7.87928ZM32.2673 32.488C32.2673 30.096 31.8339 27.9987 30.9673 26.196C30.1006 24.3587 28.8526 22.9373 27.2233 21.932C25.5939 20.892 23.6179 20.372 21.2953 20.372H15.0553V44.708H21.2953C23.6526 44.708 25.6459 44.188 27.2753 43.148C28.9046 42.0733 30.1353 40.6173 30.9673 38.78C31.8339 36.908 32.2673 34.8107 32.2673 32.488ZM57.0619 51.52C54.8779 51.52 52.9019 51.156 51.1339 50.428C49.3659 49.6653 47.8579 48.6427 46.6099 47.36C45.3619 46.0427 44.3913 44.552 43.6979 42.888C43.0393 41.1893 42.7099 39.404 42.7099 37.532C42.7099 34.932 43.2819 32.5573 44.4259 30.408C45.6046 28.2587 47.2686 26.5427 49.4179 25.26C51.6019 23.9427 54.1673 23.284 57.1139 23.284C60.0953 23.284 62.6433 23.9427 64.7579 25.26C66.8726 26.5427 68.4846 28.2587 69.5939 30.408C70.7379 32.5227 71.3099 34.8107 71.3099 37.272C71.3099 37.688 71.2926 38.1213 71.2579 38.572C71.2233 38.988 71.1886 39.3347 71.1539 39.612H50.0939C50.2326 40.9987 50.6313 42.212 51.2899 43.252C51.9833 44.292 52.8499 45.0893 53.8899 45.644C54.9646 46.164 56.1086 46.424 57.3219 46.424C58.7086 46.424 60.0086 46.0947 61.2219 45.436C62.4699 44.7427 63.3193 43.8413 63.7699 42.732L69.7499 44.396C69.0913 45.7827 68.1379 47.0133 66.8899 48.088C65.6766 49.1627 64.2379 50.012 62.5739 50.636C60.9099 51.2253 59.0726 51.52 57.0619 51.52ZM49.9379 35.192H64.1859C64.0473 33.8053 63.6486 32.6093 62.9899 31.604C62.3659 30.564 61.5339 29.7667 60.4939 29.212C59.4539 28.6227 58.2926 28.328 57.0099 28.328C55.7619 28.328 54.6179 28.6227 53.5779 29.212C52.5726 29.7667 51.7406 30.564 51.0819 31.604C50.4579 32.6093 50.0766 33.8053 49.9379 35.192ZM88.2428 51.52C86.0242 51.52 84.0308 51.156 82.2628 50.428C80.4948 49.6653 78.9868 48.6253 77.7388 47.308C76.4908 45.956 75.5202 44.4307 74.8268 42.732C74.1682 41.0333 73.8388 39.248 73.8388 37.376C73.8388 34.8107 74.4108 32.4707 75.5548 30.356C76.7335 28.2067 78.3975 26.4907 80.5468 25.208C82.6962 23.9253 85.2442 23.284 88.1908 23.284C91.1375 23.284 93.6682 23.9253 95.7828 25.208C97.8975 26.4907 99.4748 28.172 100.515 30.252L93.7028 32.332C93.1135 31.3267 92.3335 30.564 91.3628 30.044C90.3922 29.4893 89.3175 29.212 88.1388 29.212C86.8215 29.212 85.6082 29.5587 84.4988 30.252C83.4242 30.9107 82.5748 31.864 81.9508 33.112C81.3268 34.3253 81.0148 35.7467 81.0148 37.376C81.0148 38.9707 81.3268 40.392 81.9508 41.64C82.6095 42.8533 83.4762 43.824 84.5508 44.552C85.6255 45.2453 86.8215 45.592 88.1388 45.592C88.9708 45.592 89.7508 45.4533 90.4788 45.176C91.2415 44.8987 91.9175 44.5173 92.5068 44.032C93.0962 43.5467 93.5295 42.992 93.8068 42.368L100.619 44.448C99.9948 45.8 99.0762 47.0133 97.8628 48.088C96.6842 49.1627 95.2802 50.012 93.6508 50.636C92.0562 51.2253 90.2535 51.52 88.2428 51.52ZM123.522 51L115.566 39.248L111.874 42.888V51H104.906V13.04H111.874V36.024L122.846 23.804H130.23L120.09 35.348L130.958 51H123.522ZM159.227 51H152.259V35.712C152.259 33.5973 151.843 32.02 151.011 30.98C150.213 29.94 149.104 29.42 147.682 29.42C146.85 29.42 145.966 29.6627 145.03 30.148C144.094 30.6333 143.245 31.3093 142.482 32.176C141.754 33.008 141.217 33.9787 140.87 35.088V51H133.902V13.04H140.87V28.796C141.876 27.0627 143.245 25.7107 144.979 24.74C146.712 23.7693 148.601 23.284 150.647 23.284C152.415 23.284 153.853 23.596 154.963 24.22C156.072 24.8093 156.939 25.624 157.563 26.664C158.187 27.6693 158.62 28.8133 158.862 30.096C159.105 31.344 159.227 32.644 159.227 33.996V51ZM163.413 42.94C163.413 41.172 163.899 39.6293 164.869 38.312C165.875 36.96 167.261 35.92 169.029 35.192C170.797 34.464 172.825 34.1 175.113 34.1C176.257 34.1 177.419 34.1867 178.597 34.36C179.776 34.5333 180.799 34.8107 181.665 35.192V33.736C181.665 32.0027 181.145 30.668 180.105 29.732C179.1 28.796 177.592 28.328 175.581 28.328C174.091 28.328 172.669 28.588 171.317 29.108C169.965 29.628 168.544 30.3907 167.053 31.396L164.817 26.82C166.62 25.6413 168.457 24.7573 170.329 24.168C172.236 23.5787 174.229 23.284 176.309 23.284C180.192 23.284 183.208 24.2547 185.357 26.196C187.541 28.1373 188.633 30.9107 188.633 34.516V43.2C188.633 43.928 188.755 44.448 188.997 44.76C189.275 45.072 189.708 45.2627 190.297 45.332V51C189.673 51.104 189.101 51.1907 188.581 51.26C188.096 51.3293 187.68 51.364 187.333 51.364C185.947 51.364 184.889 51.052 184.161 50.428C183.468 49.804 183.035 49.0413 182.861 48.14L182.705 46.736C181.527 48.2613 180.053 49.44 178.285 50.272C176.517 51.104 174.715 51.52 172.877 51.52C171.075 51.52 169.445 51.156 167.989 50.428C166.568 49.6653 165.441 48.6427 164.609 47.36C163.812 46.0427 163.413 44.5693 163.413 42.94ZM180.365 44.344C180.747 43.928 181.059 43.512 181.301 43.096C181.544 42.68 181.665 42.2987 181.665 41.952V39.196C180.833 38.8493 179.932 38.5893 178.961 38.416C177.991 38.208 177.072 38.104 176.205 38.104C174.403 38.104 172.912 38.5027 171.733 39.3C170.589 40.0627 170.017 41.0853 170.017 42.368C170.017 43.0613 170.208 43.72 170.589 44.344C170.971 44.968 171.525 45.4707 172.253 45.852C172.981 46.2333 173.848 46.424 174.853 46.424C175.893 46.424 176.916 46.2333 177.921 45.852C178.927 45.436 179.741 44.9333 180.365 44.344ZM220.469 51H213.501V35.712C213.501 33.528 213.119 31.9333 212.357 30.928C211.594 29.9227 210.537 29.42 209.185 29.42C208.249 29.42 207.295 29.6627 206.325 30.148C205.389 30.6333 204.539 31.3093 203.777 32.176C203.014 33.008 202.459 33.9787 202.113 35.088V51H195.145V23.752H201.437V28.796C202.13 27.6173 203.014 26.6293 204.089 25.832C205.163 25 206.394 24.376 207.781 23.96C209.202 23.5093 210.693 23.284 212.253 23.284C213.951 23.284 215.338 23.596 216.413 24.22C217.522 24.8093 218.354 25.624 218.909 26.664C219.498 27.6693 219.897 28.8133 220.105 30.096C220.347 31.3787 220.469 32.6787 220.469 33.996V51ZM224.863 37.376C224.863 34.7413 225.383 32.3667 226.423 30.252C227.463 28.1027 228.902 26.404 230.739 25.156C232.577 23.908 234.674 23.284 237.031 23.284C239.042 23.284 240.845 23.7867 242.439 24.792C244.069 25.7627 245.334 27.0107 246.236 28.536V13.04H253.203V43.2C253.203 43.928 253.325 44.448 253.568 44.76C253.81 45.072 254.226 45.2627 254.816 45.332V51C253.602 51.2427 252.614 51.364 251.852 51.364C250.604 51.364 249.564 51.052 248.732 50.428C247.934 49.804 247.484 48.9893 247.379 47.984L247.275 46.268C246.27 47.9667 244.901 49.2667 243.167 50.168C241.469 51.0693 239.684 51.52 237.812 51.52C235.939 51.52 234.206 51.156 232.611 50.428C231.051 49.7 229.682 48.6947 228.503 47.412C227.359 46.1293 226.458 44.6387 225.799 42.94C225.175 41.2067 224.863 39.352 224.863 37.376ZM246.236 41.016V34.516C245.889 33.5107 245.334 32.6093 244.572 31.812C243.809 31.0147 242.959 30.3907 242.024 29.94C241.088 29.4547 240.151 29.212 239.215 29.212C238.141 29.212 237.17 29.4373 236.303 29.888C235.437 30.3387 234.674 30.9453 234.015 31.708C233.391 32.4707 232.906 33.3547 232.559 34.36C232.247 35.3653 232.091 36.4227 232.091 37.532C232.091 38.6413 232.265 39.6987 232.611 40.704C232.993 41.6747 233.53 42.524 234.223 43.252C234.917 43.98 235.714 44.552 236.616 44.968C237.551 45.384 238.557 45.592 239.632 45.592C240.29 45.592 240.949 45.488 241.607 45.28C242.301 45.0373 242.942 44.7253 243.531 44.344C244.156 43.928 244.693 43.4427 245.144 42.888C245.629 42.2987 245.993 41.6747 246.236 41.016Z" fill="#31344B"/>
</svg>
